<svg width="1440" height="1024" viewBox="0 0 1440 1024" fill="none" xmlns="http://www.w3.org/2000/svg">
<g clip-path="url(#clip0_6_147)">
<path d="M1440 0H0V1024H1440V0Z" fill="#FFE49D"/>
<path d="M0 253.752L7.75 239.416C15.5 225.13 31 196.458 46.5 177.676C62 158.845 77.5 149.854 93 141.861C108.5 133.869 124 126.876 139.5 141.112C155 155.348 170.5 190.814 186 195.06C201.5 199.305 217 172.332 232.4 152.351C247.85 132.371 263.15 119.383 278.6 129.773C294 140.213 309.5 173.98 325 184.82C340.5 195.659 356 183.471 371.5 174.58C387 165.688 402.5 159.994 418 166.837C433.5 173.68 449 192.962 464.5 211.893C480 230.775 495.5 249.257 511 255.75C526.5 262.244 542 256.749 557.5 238.367C573 219.935 588.5 188.666 604 191.913C619.5 195.159 635 232.923 650.5 258.647C666 284.372 681.5 298.059 696.9 296.61C712.35 295.212 727.65 278.728 743.1 250.006C758.5 221.284 774 180.324 789.5 161.692C805 143.01 820.5 146.707 836 145.358C851.5 144.009 867 137.716 882.5 166.437C898 195.159 913.5 258.897 929 291.316C944.5 323.684 960 324.683 975.5 298.858C991 273.083 1006.5 220.435 1022 208.946C1037.5 197.457 1053 227.128 1068.5 252.154C1084 277.229 1099.5 297.709 1115 288.718C1130.5 279.727 1146 241.264 1161.4 240.915C1176.85 240.615 1192.15 278.378 1207.6 290.616C1223 302.854 1238.5 289.567 1254 252.853C1269.5 216.139 1285 155.998 1300.5 143.71C1316 131.372 1331.5 166.837 1347 191.163C1362.5 215.44 1378 228.627 1393.5 241.614C1409 254.601 1424.5 267.389 1432.25 273.833L1440 280.226V0H1432.25C1424.5 0 1409 0 1393.5 0C1378 0 1362.5 0 1347 0C1331.5 0 1316 0 1300.5 0C1285 0 1269.5 0 1254 0C1238.5 0 1223 0 1207.6 0C1192.15 0 1176.85 0 1161.4 0C1146 0 1130.5 0 1115 0C1099.5 0 1084 0 1068.5 0C1053 0 1037.5 0 1022 0C1006.5 0 991 0 975.5 0C960 0 944.5 0 929 0C913.5 0 898 0 882.5 0C867 0 851.5 0 836 0C820.5 0 805 0 789.5 0C774 0 758.5 0 743.1 0C727.65 0 712.35 0 696.9 0C681.5 0 666 0 650.5 0C635 0 619.5 0 604 0C588.5 0 573 0 557.5 0C542 0 526.5 0 511 0C495.5 0 480 0 464.5 0C449 0 433.5 0 418 0C402.5 0 387 0 371.5 0C356 0 340.5 0 325 0C309.5 0 294 0 278.6 0C263.15 0 247.85 0 232.4 0C217 0 201.5 0 186 0C170.5 0 155 0 139.5 0C124 0 108.5 0 93 0C77.5 0 62 0 46.5 0C31 0 15.5 0 7.75 0H0V253.752Z" fill="#EDB343"/>
</g>
<defs>
<clipPath id="clip0_6_147">
<rect width="1440" height="1024" fill="white"/>
</clipPath>
</defs>
</svg>
